# Blender v2.82 (sub 7) OBJ File: ''
# www.blender.org
mtllib box.mtl
o pCube1_lambert1_0
v -4.000000 0.999999 4.600001
v 4.000000 0.999999 4.600001
v 4.000000 9.000000 4.600003
v -4.000000 9.000000 4.600003
v -4.000000 9.600000 4.000002
v 4.000000 9.600000 4.000002
v 4.000000 9.600003 -3.999997
v -4.000000 9.600003 -3.999997
v -4.000000 9.000003 -4.599998
v 4.000000 9.000003 -4.599998
v 4.000000 1.000002 -4.600001
v -4.000000 1.000002 -4.600001
v -4.000000 0.400002 -4.000000
v 4.000000 0.400002 -4.000000
v 4.000000 0.399999 4.000000
v -4.000000 0.399999 4.000000
v 4.600000 0.999999 4.000000
v 4.600000 1.000002 -4.000000
v 4.600000 9.000003 -3.999998
v 4.600000 9.000000 4.000002
v -4.600000 1.000002 -4.000000
v -4.600000 0.999999 4.000000
v -4.600000 9.000000 4.000002
v -4.600000 9.000003 -3.999998
v -5.000000 -0.000001 5.000001
v 5.000000 -0.000001 5.000001
v 4.000000 0.999999 5.000001
v -4.000000 0.999999 5.000001
v 5.000000 10.000001 5.000003
v 4.000000 9.000000 5.000003
v -5.000000 10.000001 5.000003
v -4.000000 9.000000 5.000003
v -5.000000 10.000001 5.000003
v 5.000000 10.000001 5.000003
v 4.000000 10.000001 4.000002
v -4.000000 10.000001 4.000002
v 5.000000 10.000003 -4.999999
v 4.000000 10.000003 -3.999997
v -5.000000 10.000003 -4.999999
v -4.000000 10.000003 -3.999997
v -5.000000 10.000003 -4.999999
v 5.000000 10.000003 -4.999999
v 4.000000 9.000003 -4.999999
v -4.000000 9.000003 -4.999999
v 5.000000 0.000001 -5.000001
v 4.000000 1.000002 -5.000001
v -5.000000 0.000001 -5.000001
v -4.000000 1.000002 -5.000001
v -5.000000 0.000001 -5.000001
v 5.000000 0.000001 -5.000001
v 4.000000 0.000001 -4.000000
v -4.000000 0.000001 -4.000000
v 5.000000 -0.000001 5.000001
v 4.000000 -0.000001 4.000000
v -5.000000 -0.000001 5.000001
v -4.000000 -0.000001 4.000000
v 5.000000 -0.000001 5.000001
v 5.000000 0.000001 -5.000001
v 5.000000 1.000002 -4.000000
v 5.000000 0.999999 4.000000
v 5.000000 10.000003 -4.999999
v 5.000000 9.000003 -3.999998
v 5.000000 10.000001 5.000003
v 5.000000 9.000000 4.000002
v -5.000000 0.000001 -5.000001
v -5.000000 -0.000001 5.000001
v -5.000000 0.999999 4.000000
v -5.000000 1.000002 -4.000000
v -5.000000 10.000001 5.000003
v -5.000000 9.000000 4.000002
v -5.000000 10.000003 -4.999999
v -5.000000 9.000003 -3.999998
v -4.000000 0.999999 5.000001
v 4.000000 0.999999 5.000001
v 4.000000 0.999999 4.600001
v -4.000000 0.999999 4.600001
v 4.000000 0.999999 5.000001
v 4.000000 9.000000 5.000003
v 4.000000 9.000000 4.600003
v 4.000000 0.999999 4.600001
v 4.000000 9.000000 5.000003
v -4.000000 9.000000 5.000003
v -4.000000 9.000000 4.600003
v 4.000000 9.000000 4.600003
v -4.000000 9.000000 5.000003
v -4.000000 0.999999 5.000001
v -4.000000 0.999999 4.600001
v -4.000000 9.000000 4.600003
v -4.000000 10.000001 4.000002
v 4.000000 10.000001 4.000002
v 4.000000 9.600000 4.000002
v -4.000000 9.600000 4.000002
v 4.000000 10.000001 4.000002
v 4.000000 10.000003 -3.999997
v 4.000000 9.600003 -3.999997
v 4.000000 9.600000 4.000002
v 4.000000 10.000003 -3.999997
v -4.000000 10.000003 -3.999997
v -4.000000 9.600003 -3.999997
v 4.000000 9.600003 -3.999997
v -4.000000 10.000003 -3.999997
v -4.000000 10.000001 4.000002
v -4.000000 9.600000 4.000002
v -4.000000 9.600003 -3.999997
v -4.000000 9.000003 -4.999999
v 4.000000 9.000003 -4.999999
v 4.000000 9.000003 -4.599998
v -4.000000 9.000003 -4.599998
v 4.000000 9.000003 -4.999999
v 4.000000 1.000002 -5.000001
v 4.000000 1.000002 -4.600001
v 4.000000 9.000003 -4.599998
v 4.000000 1.000002 -5.000001
v -4.000000 1.000002 -5.000001
v -4.000000 1.000002 -4.600001
v 4.000000 1.000002 -4.600001
v -4.000000 1.000002 -5.000001
v -4.000000 9.000003 -4.999999
v -4.000000 9.000003 -4.599998
v -4.000000 1.000002 -4.600001
v -4.000000 0.000001 -4.000000
v 4.000000 0.000001 -4.000000
v 4.000000 0.400002 -4.000000
v -4.000000 0.400002 -4.000000
v 4.000000 0.000001 -4.000000
v 4.000000 -0.000001 4.000000
v 4.000000 0.399999 4.000000
v 4.000000 0.400002 -4.000000
v 4.000000 -0.000001 4.000000
v -4.000000 -0.000001 4.000000
v -4.000000 0.399999 4.000000
v 4.000000 0.399999 4.000000
v -4.000000 -0.000001 4.000000
v -4.000000 0.000001 -4.000000
v -4.000000 0.400002 -4.000000
v -4.000000 0.399999 4.000000
v 5.000000 0.999999 4.000000
v 5.000000 1.000002 -4.000000
v 4.600000 1.000002 -4.000000
v 4.600000 0.999999 4.000000
v 5.000000 1.000002 -4.000000
v 5.000000 9.000003 -3.999998
v 4.600000 9.000003 -3.999998
v 4.600000 1.000002 -4.000000
v 5.000000 9.000003 -3.999998
v 5.000000 9.000000 4.000002
v 4.600000 9.000000 4.000002
v 4.600000 9.000003 -3.999998
v 5.000000 9.000000 4.000002
v 5.000000 0.999999 4.000000
v 4.600000 0.999999 4.000000
v 4.600000 9.000000 4.000002
v -5.000000 1.000002 -4.000000
v -5.000000 0.999999 4.000000
v -4.600000 0.999999 4.000000
v -4.600000 1.000002 -4.000000
v -5.000000 0.999999 4.000000
v -5.000000 9.000000 4.000002
v -4.600000 9.000000 4.000002
v -4.600000 0.999999 4.000000
v -5.000000 9.000000 4.000002
v -5.000000 9.000003 -3.999998
v -4.600000 9.000003 -3.999998
v -4.600000 9.000000 4.000002
v -5.000000 9.000003 -3.999998
v -5.000000 1.000002 -4.000000
v -4.600000 1.000002 -4.000000
v -4.600000 9.000003 -3.999998
vt 0.385222 0.421019
vt 0.611589 0.418802
vt 0.609616 0.192382
vt 0.383250 0.194598
vt 0.062912 0.417743
vt 0.289275 0.416867
vt 0.288661 0.190447
vt 0.062275 0.191305
vt 0.081083 0.522085
vt 0.084576 0.748435
vt 0.310981 0.745185
vt 0.307489 0.518836
vt 0.720465 0.750454
vt 0.946829 0.748002
vt 0.944620 0.521584
vt 0.718257 0.524035
vt 0.708758 0.426397
vt 0.935134 0.427006
vt 0.935987 0.200579
vt 0.709612 0.199969
vt 0.629971 0.749290
vt 0.628093 0.522933
vt 0.401678 0.524550
vt 0.403537 0.750929
vt 0.348457 0.457945
vt 0.648629 0.455623
vt 0.619028 0.426780
vt 0.377261 0.428450
vt 0.646381 0.155455
vt 0.617578 0.184950
vt 0.346209 0.157778
vt 0.375810 0.186620
vt 0.025930 0.454455
vt 0.326091 0.453911
vt 0.296666 0.424891
vt 0.054907 0.425127
vt 0.325656 0.153752
vt 0.296676 0.183072
vt 0.025455 0.154264
vt 0.054883 0.183282
vt 0.043949 0.485528
vt 0.047964 0.785682
vt 0.076640 0.755919
vt 0.073607 0.514165
vt 0.348115 0.781741
vt 0.318458 0.753105
vt 0.344099 0.481588
vt 0.315425 0.511351
vt 0.683738 0.787418
vt 0.983907 0.784784
vt 0.954276 0.755972
vt 0.712511 0.757893
vt 0.981347 0.484618
vt 0.952575 0.514143
vt 0.681178 0.487253
vt 0.710809 0.516065
vt 0.671535 0.462862
vt 0.971712 0.464286
vt 0.942474 0.435076
vt 0.700704 0.433728
vt 0.973210 0.164113
vt 0.944042 0.193247
vt 0.673033 0.162690
vt 0.702272 0.191899
vt 0.666846 0.786110
vt 0.664974 0.485954
vt 0.636084 0.515507
vt 0.637390 0.757263
vt 0.364819 0.487717
vt 0.394268 0.516568
vt 0.366660 0.787913
vt 0.395548 0.758357
vt 0.377261 0.428450
vt 0.619028 0.426780
vt 0.611589 0.418802
vt 0.385222 0.421019
vt 0.619028 0.426780
vt 0.617578 0.184950
vt 0.609616 0.192382
vt 0.611589 0.418802
vt 0.617578 0.184950
vt 0.375810 0.186620
vt 0.383250 0.194598
vt 0.609616 0.192382
vt 0.375810 0.186620
vt 0.377261 0.428450
vt 0.385222 0.421019
vt 0.383250 0.194598
vt 0.054907 0.425127
vt 0.296666 0.424891
vt 0.289275 0.416867
vt 0.062912 0.417743
vt 0.296666 0.424891
vt 0.296676 0.183072
vt 0.288661 0.190447
vt 0.289275 0.416867
vt 0.296676 0.183072
vt 0.054883 0.183282
vt 0.062275 0.191305
vt 0.288661 0.190447
vt 0.054883 0.183282
vt 0.054907 0.425127
vt 0.062912 0.417743
vt 0.062275 0.191305
vt 0.073607 0.514165
vt 0.076640 0.755919
vt 0.084576 0.748435
vt 0.081083 0.522085
vt 0.076640 0.755919
vt 0.318458 0.753105
vt 0.310981 0.745185
vt 0.084576 0.748435
vt 0.318458 0.753105
vt 0.315425 0.511351
vt 0.307489 0.518836
vt 0.310981 0.745185
vt 0.315425 0.511351
vt 0.073607 0.514165
vt 0.081083 0.522085
vt 0.307489 0.518836
vt 0.712511 0.757893
vt 0.954276 0.755972
vt 0.946829 0.748002
vt 0.720465 0.750454
vt 0.954276 0.755972
vt 0.952575 0.514143
vt 0.944620 0.521584
vt 0.946829 0.748002
vt 0.952575 0.514143
vt 0.710809 0.516065
vt 0.718257 0.524035
vt 0.944620 0.521584
vt 0.710809 0.516065
vt 0.712511 0.757893
vt 0.720465 0.750454
vt 0.718257 0.524035
vt 0.700704 0.433728
vt 0.942474 0.435076
vt 0.935134 0.427006
vt 0.708758 0.426397
vt 0.942474 0.435076
vt 0.944042 0.193247
vt 0.935987 0.200579
vt 0.935134 0.427006
vt 0.944042 0.193247
vt 0.702272 0.191899
vt 0.709612 0.199969
vt 0.935987 0.200579
vt 0.702272 0.191899
vt 0.700704 0.433728
vt 0.708758 0.426397
vt 0.709612 0.199969
vt 0.637390 0.757263
vt 0.636084 0.515507
vt 0.628093 0.522933
vt 0.629971 0.749290
vt 0.636084 0.515507
vt 0.394268 0.516568
vt 0.401678 0.524550
vt 0.628093 0.522933
vt 0.394268 0.516568
vt 0.395548 0.758357
vt 0.403537 0.750929
vt 0.401678 0.524550
vt 0.395548 0.758357
vt 0.637390 0.757263
vt 0.629971 0.749290
vt 0.403537 0.750929
vn 0.0000 -0.0000 1.0000
vn 0.0000 1.0000 0.0000
vn 0.0000 0.0000 -1.0000
vn 0.0000 -1.0000 -0.0000
vn 1.0000 0.0000 0.0000
vn -1.0000 -0.0000 0.0000
usemtl lambert1
s 1
f 1/1/1 2/2/1 3/3/1
f 1/1/1 3/3/1 4/4/1
f 5/5/2 6/6/2 7/7/2
f 5/5/2 7/7/2 8/8/2
f 9/9/3 10/10/3 11/11/3
f 9/9/3 11/11/3 12/12/3
f 13/13/4 14/14/4 15/15/4
f 13/13/4 15/15/4 16/16/4
f 17/17/5 18/18/5 19/19/5
f 17/17/5 19/19/5 20/20/5
f 21/21/6 22/22/6 23/23/6
f 21/21/6 23/23/6 24/24/6
f 25/25/1 26/26/1 27/27/1
f 25/25/1 27/27/1 28/28/1
f 26/26/1 29/29/1 30/30/1
f 26/26/1 30/30/1 27/27/1
f 29/29/1 31/31/1 32/32/1
f 29/29/1 32/32/1 30/30/1
f 31/31/1 25/25/1 28/28/1
f 31/31/1 28/28/1 32/32/1
f 33/33/2 34/34/2 35/35/2
f 33/33/2 35/35/2 36/36/2
f 34/34/2 37/37/2 38/38/2
f 34/34/2 38/38/2 35/35/2
f 37/37/2 39/39/2 40/40/2
f 37/37/2 40/40/2 38/38/2
f 39/39/2 33/33/2 36/36/2
f 39/39/2 36/36/2 40/40/2
f 41/41/3 42/42/3 43/43/3
f 41/41/3 43/43/3 44/44/3
f 42/42/3 45/45/3 46/46/3
f 42/42/3 46/46/3 43/43/3
f 45/45/3 47/47/3 48/48/3
f 45/45/3 48/48/3 46/46/3
f 47/47/3 41/41/3 44/44/3
f 47/47/3 44/44/3 48/48/3
f 49/49/4 50/50/4 51/51/4
f 49/49/4 51/51/4 52/52/4
f 50/50/4 53/53/4 54/54/4
f 50/50/4 54/54/4 51/51/4
f 53/53/4 55/55/4 56/56/4
f 53/53/4 56/56/4 54/54/4
f 55/55/4 49/49/4 52/52/4
f 55/55/4 52/52/4 56/56/4
f 57/57/5 58/58/5 59/59/5
f 57/57/5 59/59/5 60/60/5
f 58/58/5 61/61/5 62/62/5
f 58/58/5 62/62/5 59/59/5
f 61/61/5 63/63/5 64/64/5
f 61/61/5 64/64/5 62/62/5
f 63/63/5 57/57/5 60/60/5
f 63/63/5 60/60/5 64/64/5
f 65/65/6 66/66/6 67/67/6
f 65/65/6 67/67/6 68/68/6
f 66/66/6 69/69/6 70/70/6
f 66/66/6 70/70/6 67/67/6
f 69/69/6 71/71/6 72/72/6
f 69/69/6 72/72/6 70/70/6
f 71/71/6 65/65/6 68/68/6
f 71/71/6 68/68/6 72/72/6
f 73/73/2 74/74/2 75/75/2
f 73/73/2 75/75/2 76/76/2
f 77/77/6 78/78/6 79/79/6
f 77/77/6 79/79/6 80/80/6
f 81/81/4 82/82/4 83/83/4
f 81/81/4 83/83/4 84/84/4
f 85/85/5 86/86/5 87/87/5
f 85/85/5 87/87/5 88/88/5
f 89/89/3 90/90/3 91/91/3
f 89/89/3 91/91/3 92/92/3
f 93/93/6 94/94/6 95/95/6
f 93/93/6 95/95/6 96/96/6
f 97/97/1 98/98/1 99/99/1
f 97/97/1 99/99/1 100/100/1
f 101/101/5 102/102/5 103/103/5
f 101/101/5 103/103/5 104/104/5
f 105/105/4 106/106/4 107/107/4
f 105/105/4 107/107/4 108/108/4
f 109/109/6 110/110/6 111/111/6
f 109/109/6 111/111/6 112/112/6
f 113/113/2 114/114/2 115/115/2
f 113/113/2 115/115/2 116/116/2
f 117/117/5 118/118/5 119/119/5
f 117/117/5 119/119/5 120/120/5
f 121/121/1 122/122/1 123/123/1
f 121/121/1 123/123/1 124/124/1
f 125/125/6 126/126/6 127/127/6
f 125/125/6 127/127/6 128/128/6
f 129/129/3 130/130/3 131/131/3
f 129/129/3 131/131/3 132/132/3
f 133/133/5 134/134/5 135/135/5
f 133/133/5 135/135/5 136/136/5
f 137/137/2 138/138/2 139/139/2
f 137/137/2 139/139/2 140/140/2
f 141/141/1 142/142/1 143/143/1
f 141/141/1 143/143/1 144/144/1
f 145/145/4 146/146/4 147/147/4
f 145/145/4 147/147/4 148/148/4
f 149/149/3 150/150/3 151/151/3
f 149/149/3 151/151/3 152/152/3
f 153/153/2 154/154/2 155/155/2
f 153/153/2 155/155/2 156/156/2
f 157/157/3 158/158/3 159/159/3
f 157/157/3 159/159/3 160/160/3
f 161/161/4 162/162/4 163/163/4
f 161/161/4 163/163/4 164/164/4
f 165/165/1 166/166/1 167/167/1
f 165/165/1 167/167/1 168/168/1
