{
  "accessors": [
    {
      "bufferView": 2,
      "componentType": 5126,
      "count": 9550,
      "max": [
        0.76969701051712036,
        0.61640101671218872,
        0.61814701557159424
      ],
      "min": [
        -1.2316720485687256,
        -0.61711001396179199,
        -1.0020920038223267
      ],
      "type": "VEC3"
    },
    {
      "bufferView": 2,
      "byteOffset": 114600,
      "componentType": 5126,
      "count": 9550,
      "max": [
        1,
        1,
        1
      ],
      "min": [
        -1,
        -1,
        -1
      ],
      "type": "VEC3"
    },
    {
      "bufferView": 3,
      "componentType": 5126,
      "count": 9550,
      "max": [
        1,
        1,
        1,
        1
      ],
      "min": [
        -1,
        -1,
        -1,
        -1
      ],
      "type": "VEC4"
    },
    {
      "bufferView": 1,
      "componentType": 5126,
      "count": 9550,
      "max": [
        1.8183000087738037,
        0.99910002946853638
      ],
      "min": [
        0.00019999999494757503,
        0.00039999998989515007
      ],
      "type": "VEC2"
    },
    {
      "bufferView": 0,
      "componentType": 5125,
      "count": 42942,
      "max": [
        9549
      ],
      "min": [
        0
      ],
      "type": "SCALAR"
    },
    {
      "bufferView": 2,
      "byteOffset": 229200,
      "componentType": 5126,
      "count": 889,
      "max": [
        -0.047784999012947083,
        0.40695598721504211,
        -0.059769000858068466
      ],
      "min": [
        -0.72218900918960571,
        0.21974599361419678,
        -0.86890602111816406
      ],
      "type": "VEC3"
    },
    {
      "bufferView": 2,
      "byteOffset": 239868,
      "componentType": 5126,
      "count": 889,
      "max": [
        0.99282139539718628,
        0.996898353099823,
        0.99712282419204712
      ],
      "min": [
        -0.99988138675689697,
        -0.99741071462631226,
        -0.99621570110321045
      ],
      "type": "VEC3"
    },
    {
      "bufferView": 3,
      "byteOffset": 152800,
      "componentType": 5126,
      "count": 889,
      "max": [
        0.99875736236572266,
        0.99940121173858643,
        0.99898093938827515,
        -1
      ],
      "min": [
        -0.99862086772918701,
        -0.99818706512451172,
        -0.99924439191818237,
        -1
      ],
      "type": "VEC4"
    },
    {
      "bufferView": 1,
      "byteOffset": 76400,
      "componentType": 5126,
      "count": 889,
      "max": [
        0.77460002899169922,
        0.99879997968673706
      ],
      "min": [
        0.6370999813079834,
        0.51359999179840088
      ],
      "type": "VEC2"
    },
    {
      "bufferView": 0,
      "byteOffset": 171768,
      "componentType": 5125,
      "count": 4500,
      "max": [
        888
      ],
      "min": [
        0
      ],
      "type": "SCALAR"
    }
  ],
  "asset": {
    "extras": {
      "author": "AndyBegg (https://sketchfab.com/AndyBegg)",
      "license": "CC-BY-4.0 (http://creativecommons.org/licenses/by/4.0/)",
      "source": "https://sketchfab.com/3d-models/megaphone-texturing-exercise-f2e50c587abf4af8ba0aabce22e44841",
      "title": "Megaphone - Texturing Exercise"
    },
    "generator": "Sketchfab-8.51.0",
    "version": "2.0"
  },
  "bufferViews": [
    {
      "buffer": 0,
      "byteLength": 189768,
      "byteOffset": 0,
      "name": "floatBufferViews",
      "target": 34963
    },
    {
      "buffer": 0,
      "byteLength": 83512,
      "byteOffset": 189768,
      "byteStride": 8,
      "name": "floatBufferViews",
      "target": 34962
    },
    {
      "buffer": 0,
      "byteLength": 250536,
      "byteOffset": 273280,
      "byteStride": 12,
      "name": "floatBufferViews",
      "target": 34962
    },
    {
      "buffer": 0,
      "byteLength": 167024,
      "byteOffset": 523816,
      "byteStride": 16,
      "name": "floatBufferViews",
      "target": 34962
    }
  ],
  "buffers": [
    {
      "byteLength": 690840,
      "uri": "scene.bin"
    }
  ],
  "images": [
    {
      "uri": "textures/material_0_baseColor.png"
    },
    {
      "uri": "textures/material_0_metallicRoughness.png"
    },
    {
      "uri": "textures/material_0_emissive.png"
    },
    {
      "uri": "textures/material_0_normal.png"
    }
  ],
  "materials": [
    {
      "doubleSided": true,
      "emissiveFactor": [
        0.92912646152162426,
        0.92912646152162426,
        0.92912646152162426
      ],
      "emissiveTexture": {
        "index": 2,
        "texCoord": 0
      },
      "name": "material_0",
      "normalTexture": {
        "index": 3,
        "scale": 1,
        "texCoord": 0
      },
      "occlusionTexture": {
        "index": 1,
        "strength": 1,
        "texCoord": 0
      },
      "pbrMetallicRoughness": {
        "baseColorFactor": [
          1,
          1,
          1,
          1
        ],
        "baseColorTexture": {
          "index": 0,
          "texCoord": 0
        },
        "metallicFactor": 1,
        "metallicRoughnessTexture": {
          "index": 1,
          "texCoord": 0
        },
        "roughnessFactor": 1
      }
    }
  ],
  "meshes": [
    {
      "primitives": [
        {
          "attributes": {
            "NORMAL": 1,
            "POSITION": 0,
            "TANGENT": 2,
            "TEXCOORD_0": 3
          },
          "indices": 4,
          "material": 0,
          "mode": 4
        }
      ]
    },
    {
      "primitives": [
        {
          "attributes": {
            "NORMAL": 6,
            "POSITION": 5,
            "TANGENT": 7,
            "TEXCOORD_0": 8
          },
          "indices": 9,
          "material": 0,
          "mode": 4
        }
      ]
    }
  ],
  "nodes": [
    {
      "children": [
        1
      ],
      "name": "RootNode (gltf orientation matrix)",
      "rotation": [
        -0.70710678118654746,
        -0,
        -0,
        0.70710678118654757
      ]
    },
    {
      "children": [
        2
      ],
      "name": "RootNode (model correction matrix)"
    },
    {
      "children": [
        3,
        4
      ],
      "name": "MegaPhone.obj.cleaner.materialmerger.gles"
    },
    {
      "mesh": 0,
      "name": ""
    },
    {
      "mesh": 1,
      "name": ""
    }
  ],
  "samplers": [
    {
      "magFilter": 9729,
      "minFilter": 9987,
      "wrapS": 10497,
      "wrapT": 10497
    }
  ],
  "scene": 0,
  "scenes": [
    {
      "name": "OSG_Scene",
      "nodes": [
        0
      ]
    }
  ],
  "textures": [
    {
      "sampler": 0,
      "source": 0
    },
    {
      "sampler": 0,
      "source": 1
    },
    {
      "sampler": 0,
      "source": 2
    },
    {
      "sampler": 0,
      "source": 3
    }
  ]
}

